<svg width="57" height="57" viewBox="0 0 57 57" fill="none" xmlns="http://www.w3.org/2000/svg">
<rect width="57" height="57" rx="3" fill="#F5F7FA"/>
<path d="M16.1675 34H13L18.3636 23H22.3758L24.1496 34H20.9821L19.9262 26.0293H19.8418L16.1675 34ZM16.2942 29.6602H22.2491L21.869 31.8945H15.9141L16.2942 29.6602Z" fill="#21409A"/>
<path d="M23.5556 34L25.3505 23H30.0384C30.862 23 31.5359 23.1128 32.0603 23.3384C32.5882 23.564 32.9613 23.8826 33.1795 24.2944C33.4012 24.7062 33.4663 25.1914 33.3748 25.75C33.3044 26.151 33.1531 26.5181 32.9208 26.8511C32.6921 27.1805 32.4017 27.4598 32.0498 27.689C31.7013 27.9146 31.3124 28.0703 30.8831 28.1562L30.862 28.2637C31.3265 28.278 31.7313 28.3962 32.0762 28.6182C32.4211 28.8366 32.6745 29.141 32.8364 29.5312C32.9983 29.918 33.037 30.3691 32.9525 30.8848C32.854 31.4863 32.6129 32.0216 32.2293 32.4907C31.8456 32.9598 31.3476 33.3286 30.7353 33.5972C30.1229 33.8657 29.426 34 28.6447 34H23.5556ZM26.892 31.6152H28.2646C28.7503 31.6152 29.1322 31.5203 29.4102 31.3306C29.6917 31.1408 29.8589 30.8633 29.9117 30.498C29.9539 30.2402 29.9328 30.0218 29.8484 29.8428C29.7639 29.6637 29.6214 29.5277 29.4208 29.4346C29.2201 29.3415 28.9685 29.2949 28.6658 29.2949H27.251L26.892 31.6152ZM27.5678 27.4473H28.7714C29.0248 27.4473 29.2571 27.4061 29.4683 27.3237C29.6794 27.2414 29.8536 27.1214 29.9909 26.9639C30.1282 26.8063 30.2144 26.6165 30.2496 26.3945C30.3024 26.0508 30.2214 25.7894 30.0067 25.6104C29.7956 25.4313 29.5105 25.3418 29.1515 25.3418H27.9056L27.5678 27.4473Z" fill="#21409A"/>
<path d="M43 23L41.2051 34H38.7556L35.7992 28.2207H35.7359L34.7856 34H31.8504L33.6453 23H36.1371L39.0512 28.7578H39.1357L40.0648 23H43Z" fill="#21409A"/>
</svg>
