<svg width="20" height="20" viewBox="0 0 20 20" fill="none" xmlns="http://www.w3.org/2000/svg">
<path d="M8.36466 4.43012L8.9055 5.39923C9.39359 6.2738 9.19765 7.42109 8.42892 8.18982C8.42892 8.18982 7.49648 9.12227 9.1871 10.8129C10.8777 12.5035 11.8102 11.5711 11.8102 11.5711C12.5789 10.8023 13.7262 10.6064 14.6007 11.0945L15.5699 11.6353C16.8905 12.3723 17.0464 14.2243 15.8856 15.3851C15.1881 16.0826 14.3337 16.6254 13.3891 16.6612C11.799 16.7215 9.09857 16.319 6.38975 13.6102C3.68094 10.9014 3.27851 8.201 3.33879 6.61089C3.3746 5.66631 3.91734 4.81184 4.61484 4.11434C5.77563 2.95355 7.62765 3.10951 8.36466 4.43012Z" fill="white"/>
<path d="M11.0496 1.56673C11.1047 1.22599 11.4269 0.994843 11.7676 1.05001C11.7887 1.05404 11.8565 1.06673 11.8921 1.07465C11.9632 1.09048 12.0624 1.11486 12.1861 1.15089C12.4334 1.22292 12.7789 1.34159 13.1936 1.53171C14.0238 1.91233 15.1287 2.57817 16.2752 3.72467C17.4216 4.87117 18.0875 5.97602 18.4681 6.80625C18.6582 7.22093 18.7769 7.56643 18.8489 7.81375C18.885 7.93742 18.9093 8.03661 18.9252 8.10772C18.9331 8.14327 18.9389 8.17182 18.9429 8.19291L18.9477 8.21891C19.0029 8.55965 18.7738 8.89508 18.4331 8.95025C18.0933 9.00525 17.7732 8.77523 17.7167 8.43608C17.715 8.42698 17.7102 8.40251 17.7051 8.37944C17.6948 8.33329 17.677 8.2601 17.6488 8.16331C17.5924 7.96969 17.4945 7.68192 17.3318 7.32719C17.007 6.6186 16.4228 5.64011 15.3913 4.60856C14.3597 3.577 13.3812 2.99284 12.6726 2.66798C12.3179 2.50535 12.0301 2.40741 11.8365 2.35101C11.7397 2.32282 11.6181 2.2949 11.5719 2.28462C11.2328 2.2281 10.9946 1.9065 11.0496 1.56673Z" fill="white"/>
<path fill-rule="evenodd" clip-rule="evenodd" d="M11.2381 4.44128C11.3329 4.10939 11.6789 3.9172 12.0108 4.01203L11.8391 4.61298C12.0108 4.01203 12.0108 4.01203 12.0108 4.01203L12.012 4.01238L12.0132 4.01275L12.016 4.01356L12.0225 4.01549L12.039 4.02062C12.0515 4.02464 12.0672 4.02987 12.0859 4.03651C12.1234 4.04979 12.1728 4.06868 12.2335 4.09468C12.3549 4.14671 12.5208 4.22706 12.7246 4.34766C13.1324 4.58906 13.6893 4.99004 14.3434 5.64418C14.9975 6.29833 15.3985 6.85515 15.6399 7.26303C15.7605 7.46679 15.8409 7.63268 15.8929 7.75408C15.9189 7.81476 15.9378 7.86422 15.9511 7.90165C15.9577 7.92036 15.9629 7.93605 15.967 7.94861L15.9721 7.9651L15.974 7.97156L15.9748 7.97434L15.9752 7.97562C15.9752 7.97562 15.9756 7.97682 15.3746 8.14852L15.9756 7.97682C16.0704 8.30871 15.8782 8.65464 15.5463 8.74947C15.2172 8.84349 14.8744 8.65536 14.7761 8.32864L14.773 8.31966C14.7686 8.30714 14.7594 8.28249 14.744 8.24648C14.7131 8.17454 14.6572 8.05685 14.5642 7.89969C14.3784 7.58573 14.0428 7.11136 13.4595 6.52807C12.8762 5.94477 12.4019 5.60918 12.0879 5.42338C11.9307 5.33036 11.813 5.27445 11.7411 5.24361C11.7051 5.22818 11.6804 5.21899 11.6679 5.21455L11.6589 5.21147C11.3322 5.11323 11.1441 4.77036 11.2381 4.44128Z" fill="white"/>
</svg>
