<svg width="18" height="18" viewBox="0 0 18 18" fill="none" xmlns="http://www.w3.org/2000/svg">
<path fill-rule="evenodd" clip-rule="evenodd" d="M10.5 16.5H7.5C4.67157 16.5 3.25736 16.5 2.37868 15.6213C1.5 14.7426 1.5 13.3284 1.5 10.5V7.5C1.5 4.67157 1.5 3.25736 2.37868 2.37868C3.25736 1.5 4.67902 1.5 7.52234 1.5C7.97685 1.5 8.34105 1.5 8.64751 1.5125C8.63742 1.57244 8.63213 1.6336 8.63192 1.69542L8.625 3.82123C8.62493 4.64405 8.62487 5.37123 8.70368 5.95737C8.7891 6.59271 8.98523 7.22795 9.50368 7.7464C10.0221 8.26485 10.6574 8.46098 11.2927 8.5464C11.8789 8.62521 12.606 8.62515 13.4289 8.62508L13.5 8.62508H16.4681C16.5 9.02578 16.5 9.51757 16.5 10.1722V10.5C16.5 13.3284 16.5 14.7426 15.6213 15.6213C14.7426 16.5 13.3284 16.5 10.5 16.5ZM3.9375 10.875C3.9375 10.5643 4.18934 10.3125 4.5 10.3125H10.5C10.8107 10.3125 11.0625 10.5643 11.0625 10.875C11.0625 11.1857 10.8107 11.4375 10.5 11.4375H4.5C4.18934 11.4375 3.9375 11.1857 3.9375 10.875ZM3.9375 13.5C3.9375 13.1893 4.18934 12.9375 4.5 12.9375H8.625C8.93566 12.9375 9.1875 13.1893 9.1875 13.5C9.1875 13.8107 8.93566 14.0625 8.625 14.0625H4.5C4.18934 14.0625 3.9375 13.8107 3.9375 13.5Z" fill="white"/>
<path d="M14.5138 5.71249L11.5447 3.04032C10.6988 2.27901 10.2759 1.89836 9.75692 1.69922L9.75 3.75008C9.75 5.51785 9.75 6.40173 10.2992 6.95091C10.8483 7.50008 11.7322 7.50008 13.5 7.50008H16.1851C15.9131 6.97191 15.4263 6.53373 14.5138 5.71249Z" fill="white"/>
</svg>
