<svg width="30" height="30" viewBox="0 0 30 30" fill="none" xmlns="http://www.w3.org/2000/svg">
<path d="M12.5584 28.7471C14.2357 30.4242 15.7677 30.411 17.4318 28.7471L19.4657 26.7266C19.677 26.5286 19.8619 26.4493 20.1393 26.4493H22.992C25.356 26.4493 26.4523 25.3665 26.4523 22.9894V20.137C26.4523 19.8597 26.5316 19.6748 26.7296 19.4635L28.7371 17.4298C30.4276 15.7659 30.4143 14.2341 28.7371 12.557L26.7296 10.5233C26.5316 10.3252 26.4523 10.1271 26.4523 9.86302V6.99736C26.4523 4.64673 25.3693 3.53748 22.992 3.53748H20.1393C19.8619 3.53748 19.677 3.47145 19.4657 3.27334L17.4318 1.2529C15.7677 -0.424246 14.2357 -0.411005 12.5584 1.2529L10.5244 3.27334C10.3264 3.47145 10.1282 3.53748 9.86407 3.53748H6.99813C4.63405 3.53748 3.53787 4.62036 3.53787 6.99736V9.86302C3.53787 10.1271 3.47182 10.3252 3.27375 10.5233L1.25302 12.557C-0.424259 14.2341 -0.411073 15.7659 1.25302 17.4298L3.27375 19.4635C3.47182 19.6748 3.53787 19.8597 3.53787 20.137V22.9894C3.53787 25.3532 4.63405 26.4493 6.99813 26.4493H9.86407C10.1282 26.4493 10.3264 26.5286 10.5244 26.7266L12.5584 28.7471ZM14.0376 27.268L11.5546 24.7722C11.264 24.4685 10.9603 24.3496 10.5509 24.3496H6.99813C5.82271 24.3496 5.63777 24.1647 5.63777 22.9894V19.4371C5.63777 19.0409 5.51893 18.7372 5.22838 18.4467L2.73222 15.964C1.9002 15.1188 1.9002 14.8812 2.73222 14.036L5.22838 11.5533C5.51893 11.2628 5.63777 10.9591 5.63777 10.5497V6.99736C5.63777 5.80883 5.80953 5.63721 6.99813 5.63721H10.5509C10.9603 5.63721 11.264 5.53151 11.5546 5.22781L14.0376 2.73193C14.8828 1.89995 15.1206 1.89995 15.9658 2.73193L18.4487 5.22781C18.7393 5.53151 19.0431 5.63721 19.4393 5.63721H22.992C24.1675 5.63721 24.3524 5.82202 24.3524 6.99736V10.5497C24.3524 10.9591 24.4845 11.2628 24.7751 11.5533L27.2711 14.036C28.1031 14.8812 28.1031 15.1188 27.2711 15.964L24.7751 18.4467C24.4845 18.7372 24.3524 19.0409 24.3524 19.4371V22.9894C24.3524 24.1647 24.1675 24.3496 22.992 24.3496H19.4393C19.0431 24.3496 18.7393 24.4685 18.4487 24.7722L15.9658 27.268C15.1206 28.1 14.8828 28.1 14.0376 27.268Z" fill="#FF6B00"/>
<path d="M13.7673 20.8208C13.5718 21.06 13.2852 21.2195 12.9074 21.2195C12.5426 21.2195 12.2951 21.0866 12.0996 20.874L7.95659 16.1695C7.77415 15.9834 7.68298 15.7309 7.68298 15.4652C7.68298 14.8538 8.13897 14.4153 8.77735 14.4153C9.1031 14.4153 9.35063 14.5216 9.5721 14.7741L12.8683 18.4819L19.2523 9.3121C19.5128 8.92669 19.7474 8.78052 20.1773 8.78052C20.7766 8.78052 21.2196 9.24564 21.2196 9.83041C21.2196 10.0563 21.1414 10.2955 20.9981 10.5082L13.7673 20.8208Z" fill="#21409A"/>
</svg>
