<svg width="82" height="82" viewBox="0 0 82 82" fill="none" xmlns="http://www.w3.org/2000/svg">
<path d="M34.3262 78.5755C38.9109 83.1595 43.0984 83.1235 47.647 78.5755L53.2063 73.0528C53.7839 72.5114 54.2892 72.2947 55.0473 72.2947H62.8448C69.3065 72.2947 72.3031 69.335 72.3031 62.8378V55.0411C72.3031 54.2831 72.5196 53.7778 73.0609 53.2003L78.548 47.6415C83.1687 43.0935 83.1326 38.9065 78.548 34.3223L73.0609 28.7636C72.5196 28.2221 72.3031 27.6808 72.3031 26.9589V19.1261C72.3031 12.7011 69.3428 9.66912 62.8448 9.66912H55.0473C54.2892 9.66912 53.7839 9.48863 53.2063 8.94714L47.647 3.42458C43.0984 -1.15961 38.9109 -1.12341 34.3262 3.42458L28.7668 8.94714C28.2254 9.48863 27.6839 9.66912 26.9618 9.66912H19.1282C12.6664 9.66912 9.67017 12.629 9.67017 19.1261V26.9589C9.67017 27.6808 9.48965 28.2221 8.94825 28.7636L3.42491 34.3223C-1.15964 38.9065 -1.1236 43.0935 3.42491 47.6415L8.94825 53.2003C9.48965 53.7778 9.67017 54.2831 9.67017 55.0411V62.8378C9.67017 69.2988 12.6664 72.2947 19.1282 72.2947H26.9618C27.6839 72.2947 28.2254 72.5114 28.7668 73.0528L34.3262 78.5755ZM38.3693 74.5326L31.5825 67.7107C30.7884 66.8805 29.9582 66.5556 28.839 66.5556H19.1282C15.9154 66.5556 15.4099 66.0502 15.4099 62.8378V53.128C15.4099 52.0452 15.0851 51.2151 14.2909 50.4209L7.46807 43.6349C5.19389 41.3247 5.19389 40.6751 7.46807 38.365L14.2909 31.5792C15.0851 30.7849 15.4099 29.9548 15.4099 28.8358V19.1261C15.4099 15.8775 15.8794 15.4084 19.1282 15.4084H28.839C29.9582 15.4084 30.7884 15.1194 31.5825 14.2893L38.3693 7.46728C40.6797 5.19321 41.3295 5.19321 43.6399 7.46728L50.4266 14.2893C51.2207 15.1194 52.0511 15.4084 53.134 15.4084H62.8448C66.0578 15.4084 66.5632 15.9135 66.5632 19.1261V28.8358C66.5632 29.9548 66.9242 30.7849 67.7185 31.5792L74.5409 38.365C76.8151 40.6751 76.8151 41.3247 74.5409 43.6349L67.7185 50.4209C66.9242 51.2151 66.5632 52.0452 66.5632 53.128V62.8378C66.5632 66.0502 66.0578 66.5556 62.8448 66.5556H53.134C52.0511 66.5556 51.2207 66.8805 50.4266 67.7107L43.6399 74.5326C41.3295 76.8067 40.6797 76.8067 38.3693 74.5326Z" fill="#FF6B00"/>
<path d="M37.6304 56.9101C37.0962 57.564 36.3128 58 35.2801 58C34.283 58 33.6064 57.6367 33.0722 57.0555L21.7479 44.1965C21.2492 43.688 21 42.9978 21 42.2714C21 40.6004 22.2464 39.4017 23.9913 39.4017C24.8816 39.4017 25.5582 39.6923 26.1636 40.3825L35.1732 50.5171L52.6228 25.453C53.3349 24.3996 53.976 24 55.1511 24C56.7893 24 58 25.2713 58 26.8697C58 27.4872 57.7864 28.1409 57.3947 28.7223L37.6304 56.9101Z" fill="white"/>
</svg>
