<svg width="57" height="57" viewBox="0 0 57 57" fill="none" xmlns="http://www.w3.org/2000/svg">
<rect width="57" height="57" rx="3" fill="#F5F7FA"/>
<path fill-rule="evenodd" clip-rule="evenodd" d="M19.1716 21.1716C18 22.3431 18 24.2288 18 28C18 31.7712 18 33.6569 19.1716 34.8284C20.3431 36 22.2288 36 26 36H30C33.7712 36 35.6569 36 36.8284 34.8284C38 33.6569 38 31.7712 38 28C38 24.2288 38 22.3431 36.8284 21.1716C35.6569 20 33.7712 20 30 20H26C22.2288 20 20.3431 20 19.1716 21.1716ZM34.5762 23.5199C34.8413 23.8381 34.7983 24.311 34.4801 24.5762L32.2837 26.4066C31.3973 27.1452 30.6789 27.7439 30.0448 28.1517C29.3843 28.5765 28.7411 28.8449 28 28.8449C27.2589 28.8449 26.6157 28.5765 25.9552 28.1517C25.3211 27.7439 24.6027 27.1452 23.7164 26.4066L21.5199 24.5762C21.2017 24.311 21.1587 23.8381 21.4238 23.5199C21.689 23.2017 22.1619 23.1587 22.4801 23.4238L24.639 25.2229C25.572 26.0004 26.2197 26.5384 26.7666 26.8901C27.2959 27.2306 27.6549 27.3449 28 27.3449C28.3451 27.3449 28.7041 27.2306 29.2334 26.8901C29.7803 26.5384 30.428 26.0004 31.361 25.2229L33.5199 23.4238C33.8381 23.1587 34.311 23.2017 34.5762 23.5199Z" fill="#21409A"/>
</svg>
