<svg width="57" height="57" viewBox="0 0 57 57" fill="none" xmlns="http://www.w3.org/2000/svg">
<rect width="57" height="57" rx="3" fill="#F5F7FA"/>
<path fill-rule="evenodd" clip-rule="evenodd" d="M29 16.5C23.4772 16.5 19 21.5032 19 27.125C19 32.7027 22.1917 38.7655 27.1713 41.0931C28.3322 41.6356 29.6678 41.6356 30.8287 41.0931C35.8083 38.7655 39 32.7027 39 27.125C39 21.5032 34.5228 16.5 29 16.5ZM29 29C30.3807 29 31.5 27.8807 31.5 26.5C31.5 25.1193 30.3807 24 29 24C27.6193 24 26.5 25.1193 26.5 26.5C26.5 27.8807 27.6193 29 29 29Z" fill="#21409A"/>
</svg>
