<svg width="57" height="57" viewBox="0 0 57 57" fill="none" xmlns="http://www.w3.org/2000/svg">
<rect width="57" height="57" rx="3" fill="#F5F7FA"/>
<path d="M25.3834 19.0881L26.2488 20.6387C27.0297 22.038 26.7162 23.8737 25.4863 25.1037C25.4863 25.1037 23.9943 26.5956 26.6993 29.3006C29.4043 32.0055 30.8962 30.5136 30.8962 30.5136C32.1262 29.2837 33.9619 28.9702 35.3612 29.7511L36.9118 30.6165C39.0247 31.7957 39.2743 34.7589 37.417 36.6162C36.301 37.7322 34.9338 38.6006 33.4225 38.6578C30.8783 38.7543 26.5577 38.1104 22.2236 33.7763C17.8895 29.4422 17.2456 25.1216 17.342 22.5774C17.3993 21.0661 18.2677 19.6989 19.3837 18.5829C21.241 16.7256 24.2042 16.9752 25.3834 19.0881Z" fill="#21409A"/>
</svg>
