<svg width="20" height="20" viewBox="0 0 20 20" fill="none" xmlns="http://www.w3.org/2000/svg">
<path d="M8.36466 4.43006L8.9055 5.39917C9.39359 6.27374 9.19765 7.42102 8.42892 8.18975C8.42892 8.18975 7.49648 9.12221 9.1871 10.8128C10.8777 12.5034 11.8102 11.571 11.8102 11.571C12.5789 10.8023 13.7262 10.6063 14.6007 11.0944L15.5699 11.6353C16.8905 12.3723 17.0464 14.2243 15.8856 15.3851C15.1881 16.0826 14.3337 16.6253 13.3891 16.6611C11.799 16.7214 9.09857 16.319 6.38975 13.6102C3.68094 10.9014 3.27851 8.20094 3.33879 6.61082C3.3746 5.66625 3.91734 4.81178 4.61484 4.11428C5.77563 2.95349 7.62765 3.10945 8.36466 4.43006Z" fill="#333333"/>
<path d="M11.0496 1.56685C11.1047 1.22611 11.4269 0.994965 11.7676 1.05013C11.7887 1.05417 11.8565 1.06685 11.8921 1.07477C11.9632 1.09061 12.0624 1.11499 12.1861 1.15101C12.4334 1.22304 12.7789 1.34171 13.1936 1.53183C14.0238 1.91246 15.1287 2.57829 16.2752 3.72479C17.4216 4.87129 18.0875 5.97614 18.4681 6.80637C18.6582 7.22105 18.7769 7.56655 18.8489 7.81387C18.885 7.93754 18.9093 8.03673 18.9252 8.10784C18.9331 8.14339 18.9389 8.17194 18.9429 8.19304L18.9477 8.21903C19.0029 8.55977 18.7738 8.89521 18.4331 8.95037C18.0933 9.00538 17.7732 8.77535 17.7167 8.43621C17.715 8.4271 17.7102 8.40264 17.7051 8.37956C17.6948 8.33341 17.677 8.26022 17.6488 8.16343C17.5924 7.96982 17.4945 7.68204 17.3318 7.32731C17.007 6.61872 16.4228 5.64023 15.3913 4.60868C14.3597 3.57713 13.3812 2.99296 12.6726 2.6681C12.3179 2.50547 12.0301 2.40753 11.8365 2.35114C11.7397 2.32294 11.6181 2.29502 11.5719 2.28474C11.2328 2.22822 10.9946 1.90662 11.0496 1.56685Z" fill="#333333"/>
<path fill-rule="evenodd" clip-rule="evenodd" d="M11.2381 4.44141C11.3329 4.10951 11.6789 3.91733 12.0108 4.01215L11.8391 4.61311C12.0108 4.01215 12.0108 4.01215 12.0108 4.01215L12.012 4.0125L12.0132 4.01287L12.016 4.01368L12.0225 4.01561L12.039 4.02074C12.0515 4.02476 12.0672 4.03 12.0859 4.03663C12.1234 4.04991 12.1728 4.0688 12.2335 4.0948C12.3549 4.14683 12.5208 4.22719 12.7246 4.34778C13.1324 4.58918 13.6893 4.99016 14.3434 5.6443C14.9975 6.29845 15.3985 6.85527 15.6399 7.26316C15.7605 7.46692 15.8409 7.6328 15.8929 7.75421C15.9189 7.81488 15.9378 7.86434 15.9511 7.90177C15.9577 7.92048 15.9629 7.93617 15.967 7.94874L15.9721 7.96522L15.974 7.97168L15.9748 7.97446L15.9752 7.97574C15.9752 7.97574 15.9756 7.97694 15.3746 8.14864L15.9756 7.97694C16.0704 8.30884 15.8782 8.65477 15.5463 8.74959C15.2172 8.84362 14.8744 8.65548 14.7761 8.32877L14.773 8.31978C14.7686 8.30726 14.7594 8.28261 14.744 8.24661C14.7131 8.17466 14.6572 8.05697 14.5642 7.89981C14.3784 7.58586 14.0428 7.11148 13.4595 6.52819C12.8762 5.94489 12.4019 5.60931 12.0879 5.4235C11.9307 5.33049 11.813 5.27457 11.7411 5.24374C11.7051 5.22831 11.6804 5.21911 11.6679 5.21467L11.6589 5.21159C11.3322 5.11336 11.1441 4.77048 11.2381 4.44141Z" fill="#333333"/>
</svg>
