<svg width="20" height="20" viewBox="0 0 20 20" fill="none" xmlns="http://www.w3.org/2000/svg">
<path fill-rule="evenodd" clip-rule="evenodd" d="M8.79063 17.9398L8.99901 17.5877C9.33297 17.0235 9.49995 16.7414 9.76594 16.5841C10.0319 16.4267 10.3789 16.4156 11.0728 16.3934C11.7235 16.3726 12.1608 16.3159 12.5347 16.161C13.322 15.8349 13.9474 15.2094 14.2735 14.4222C14.5181 13.8317 14.5181 13.0832 14.5181 11.5862V10.9437C14.5181 8.84024 14.5181 7.78854 14.0446 7.01594C13.7797 6.58363 13.4162 6.22016 12.9839 5.95524C12.2113 5.48179 11.1596 5.48179 9.05623 5.48179H7.12852C5.02511 5.48179 3.97341 5.48179 3.20081 5.95524C2.76851 6.22016 2.40504 6.58363 2.14012 7.01594C1.66667 7.78854 1.66667 8.84024 1.66667 10.9437V11.5862C1.66667 13.0832 1.66667 13.8317 1.91124 14.4222C2.23732 15.2094 2.86278 15.8349 3.65002 16.161C4.02393 16.3158 4.46124 16.3726 5.1119 16.3934C5.80582 16.4156 6.15279 16.4267 6.41878 16.5841C6.68477 16.7414 6.85176 17.0235 7.18572 17.5877L7.3941 17.9398C7.70457 18.4643 8.48016 18.4643 8.79063 17.9398ZM10.9036 11.9075C11.3472 11.9075 11.7068 11.5479 11.7068 11.1043C11.7068 10.6607 11.3472 10.3011 10.9036 10.3011C10.46 10.3011 10.1004 10.6607 10.1004 11.1043C10.1004 11.5479 10.46 11.9075 10.9036 11.9075ZM8.89559 11.1043C8.89559 11.5479 8.53598 11.9075 8.09237 11.9075C7.64877 11.9075 7.28916 11.5479 7.28916 11.1043C7.28916 10.6607 7.64877 10.3011 8.09237 10.3011C8.53598 10.3011 8.89559 10.6607 8.89559 11.1043ZM5.28113 11.9075C5.72473 11.9075 6.08434 11.5479 6.08434 11.1043C6.08434 10.6607 5.72473 10.3011 5.28113 10.3011C4.83753 10.3011 4.47792 10.6607 4.47792 11.1043C4.47792 11.5479 4.83753 11.9075 5.28113 11.9075Z" fill="white"/>
<path d="M12.6414 1.66669C13.6011 1.66668 14.3644 1.66668 14.9764 1.72487C15.6041 1.78455 16.1347 1.90964 16.6074 2.19932C17.0938 2.49735 17.5027 2.90626 17.8007 3.3926C18.0904 3.86532 18.2155 4.39597 18.2752 5.02359C18.3333 5.63568 18.3333 6.39894 18.3333 7.35868V8.01418C18.3333 8.69724 18.3333 9.24053 18.3033 9.68109C18.2725 10.1318 18.2083 10.5188 18.0582 10.8812C17.6914 11.7669 16.9877 12.4705 16.1021 12.8374C16.0799 12.8466 16.0577 12.8554 16.0353 12.864C15.9284 12.9048 15.8368 12.9398 15.7564 12.9659C15.7681 12.5752 15.7681 12.1303 15.7681 11.6281V10.8845C15.7681 9.88317 15.7681 9.04436 15.7033 8.36243C15.6354 7.6485 15.4877 6.97853 15.1104 6.36282C14.7424 5.76232 14.2376 5.25743 13.6371 4.88944C13.0214 4.51213 12.3514 4.36447 11.6375 4.29659C10.9555 4.23175 10.1167 4.23177 9.11536 4.23179H7.06939C6.38932 4.23177 5.78421 4.23176 5.25231 4.25206C5.27709 4.16619 5.31104 4.06776 5.35089 3.95222C5.41867 3.75571 5.50433 3.56986 5.61295 3.3926C5.91099 2.90626 6.31989 2.49735 6.80624 2.19932C7.27895 1.90964 7.8096 1.78455 8.43722 1.72487C9.04932 1.66668 9.81254 1.66668 10.7723 1.66669H12.6414Z" fill="white"/>
</svg>
