<svg width="24" height="24" viewBox="0 0 24 24" fill="none" xmlns="http://www.w3.org/2000/svg">
<path fill-rule="evenodd" clip-rule="evenodd" d="M18.6817 10.8166L17.3085 14.9361C16.3404 17.8406 15.8563 19.2929 15.1464 19.7056C14.4711 20.0981 13.637 20.0982 12.9617 19.7056C12.2519 19.2929 11.7678 17.8406 10.7996 14.9361C10.6442 14.4698 10.5664 14.2366 10.4359 14.0417C10.3095 13.8528 10.1472 13.6905 9.95834 13.5641C9.76344 13.4336 9.53026 13.3559 9.06389 13.2004C6.15939 12.2322 4.70713 11.7481 4.29445 11.0383C3.90185 10.363 3.90185 9.5289 4.29445 8.85359C4.70714 8.14371 6.15939 7.65963 9.06389 6.69146L13.1834 5.3183C16.7821 4.11873 18.5814 3.51895 19.5312 4.46876C20.4811 5.41858 19.8813 7.21793 18.6817 10.8166ZM12.8365 11.1217C12.6035 10.8861 12.6056 10.5062 12.8413 10.2732L16.2097 6.94193C16.4453 6.70892 16.8252 6.71103 17.0582 6.94664C17.2912 7.18225 17.2891 7.56214 17.0535 7.79515L13.6851 11.1264C13.4495 11.3595 13.0696 11.3574 12.8365 11.1217Z" fill="white"/>
</svg>
