<svg width="57" height="57" viewBox="0 0 57 57" fill="none" xmlns="http://www.w3.org/2000/svg">
<rect width="57" height="57" rx="3" fill="#F5F7FA"/>
<path d="M21.096 34.3359C23.9547 32.2026 26.216 30.2719 27.88 28.5439C29.544 26.7946 30.376 25.1626 30.376 23.6479C30.376 23.1359 30.2587 22.7413 30.024 22.4639C29.8107 22.1866 29.5227 22.0479 29.16 22.0479C28.7333 22.0479 28.392 22.2719 28.136 22.7199C27.9013 23.1466 27.816 23.8079 27.88 24.7039H21C21.064 22.7199 21.4907 21.0879 22.28 19.8079C23.0907 18.5279 24.136 17.5893 25.416 16.9919C26.696 16.3946 28.104 16.0959 29.64 16.0959C32.3707 16.0959 34.3653 16.7573 35.624 18.0799C36.904 19.3813 37.544 21.0559 37.544 23.1039C37.544 25.2586 36.8507 27.2853 35.464 29.1839C34.0987 31.0613 32.3813 32.6506 30.312 33.9519H37.64V39.6799H21.096V34.3359Z" fill="#FF6B00"/>
</svg>
