<svg width="57" height="57" viewBox="0 0 57 57" fill="none" xmlns="http://www.w3.org/2000/svg">
<rect width="57" height="57" rx="3" fill="#F5F7FA"/>
<path d="M21.256 23.9359C21.32 21.3973 22.056 19.4559 23.464 18.1119C24.8933 16.7679 26.9093 16.0959 29.512 16.0959C31.1973 16.0959 32.6373 16.3839 33.832 16.9599C35.0267 17.5359 35.9227 18.3146 36.52 19.2959C37.1387 20.2773 37.448 21.3866 37.448 22.6239C37.448 24.1173 37.096 25.2906 36.392 26.1439C35.688 26.9759 34.8987 27.5413 34.024 27.8399V27.9679C36.584 28.9279 37.864 30.7093 37.864 33.3119C37.864 34.6773 37.544 35.8826 36.904 36.9279C36.264 37.9733 35.3467 38.7839 34.152 39.3599C32.9787 39.9359 31.5813 40.2239 29.96 40.2239C27.1867 40.2239 25.0107 39.5626 23.432 38.2399C21.8533 36.9173 21.0427 34.8479 21 32.0319H27.912C27.8693 32.7999 27.976 33.3866 28.232 33.7919C28.5093 34.1759 28.9787 34.3679 29.64 34.3679C30.024 34.3679 30.344 34.2293 30.6 33.9519C30.856 33.6533 30.984 33.2693 30.984 32.7999C30.984 32.2026 30.7813 31.7546 30.376 31.4559C29.992 31.1359 29.3307 30.9759 28.392 30.9759H27.208V25.2479H28.36C29.8107 25.3333 30.536 24.7573 30.536 23.5199C30.536 22.9866 30.4187 22.5919 30.184 22.3359C29.9707 22.0799 29.6933 21.9519 29.352 21.9519C28.5627 21.9519 28.168 22.6133 28.168 23.9359H21.256Z" fill="#FF6B00"/>
</svg>
