<svg width="192" height="192" viewBox="0 0 192 192" fill="none" xmlns="http://www.w3.org/2000/svg">
<path d="M88.2567 115.449C87.4695 116.196 86.5792 116.648 85.649 117.024C83.8536 117.749 82.3181 118.839 80.9619 120.216C78.178 123.044 75.369 125.848 72.5703 128.662C72.3963 128.837 72.2512 129.051 71.958 129.097C71.6089 128.859 71.7594 128.482 71.7555 128.169C71.7369 126.7 71.7214 125.231 71.7572 123.763C71.775 123.03 71.4372 122.719 70.7627 122.716C68.4504 122.706 66.1379 122.708 63.8256 122.713C63.0256 122.715 62.6697 123.078 62.6768 123.931C62.7081 127.712 62.6918 131.493 62.6885 135.275C62.6873 136.632 62.2495 137.122 60.8963 137.283C60.6492 137.312 60.3971 137.305 60.1473 137.305C53.741 137.305 47.3348 137.306 40.9286 137.299C40.4937 137.298 40.0542 137.271 39.6251 137.204C38.7047 137.059 38.2096 136.547 38.1596 135.567C37.9828 132.1 38.0776 128.634 38.1272 125.168C38.1277 125.137 38.135 125.106 38.1374 125.075C38.3182 122.813 38.1439 122.654 35.8931 122.754C34.9907 122.794 34.0833 122.711 33.178 122.701C32.2814 122.69 31.8347 122.177 31.8269 121.354C31.7973 118.23 31.7953 115.104 31.8241 111.98C31.8334 110.964 32.4349 110.459 33.6491 110.398C34.6779 110.346 35.711 110.384 36.7422 110.378C38.0359 110.37 38.1812 110.223 38.1812 108.909C38.1813 99.0344 38.1802 89.1594 38.1779 79.2844C38.1775 77.9051 37.9816 77.7077 36.6146 77.7009C35.4584 77.6951 34.3019 77.7124 33.1461 77.6915C32.2354 77.675 31.8251 77.2866 31.8196 76.3689C31.8008 73.2128 31.8015 70.0564 31.8178 66.9003C31.8228 65.9272 32.2147 65.5723 33.2122 65.561C34.3683 65.5478 35.5247 65.5594 36.6809 65.5566C37.964 65.5534 38.2361 65.3157 38.1593 64.0239C37.9903 61.1815 38.0896 58.3384 38.0779 55.4959C38.0728 54.2481 38.1556 53.0001 38.1797 51.7518C38.1932 51.0508 38.5228 50.4889 38.937 49.9763C42.2732 45.8473 45.6107 41.7193 48.9692 37.6086C49.7647 36.6349 50.9039 36.6743 51.7699 37.7205C54.3388 40.8237 56.873 43.9556 59.4217 47.0756C60.1528 47.9706 60.8842 48.8654 61.6208 49.756C62.3428 50.6291 62.7123 51.5994 62.7021 52.761C62.6691 56.542 62.6882 60.3234 62.6932 64.1047C62.6949 65.4095 62.8412 65.5538 64.1501 65.5568C66.3063 65.5617 68.4631 65.5291 70.6185 65.571C71.4858 65.5879 71.7658 65.255 71.7588 64.4129C71.7294 60.8819 71.8135 57.3487 71.7202 53.8199C71.669 51.8825 72.1146 50.2748 73.4122 48.7661C76.4656 45.2162 79.3787 41.5458 82.3697 37.9418C83.4499 36.6402 84.5676 36.6416 85.6297 37.9422C88.8892 41.9336 92.124 45.9451 95.3741 49.9441C96.0632 50.792 96.2512 51.7817 96.2518 52.8314C96.2541 56.6439 96.2503 60.4564 96.2553 64.2689C96.2569 65.4846 96.3328 65.5564 97.518 65.5577C99.6742 65.56 101.83 65.5597 103.987 65.5562C105.187 65.5543 105.306 65.4375 105.307 64.1988C105.312 60.8551 105.433 57.5052 105.267 54.1697C105.153 51.8701 105.912 50.0907 107.357 48.388C110.325 44.8878 113.19 41.2992 116.098 37.7475C116.974 36.6773 118.066 36.6146 118.937 37.673C122.331 41.7955 125.703 45.9369 129.068 50.0829C129.592 50.7272 129.825 51.4795 129.823 52.3407C129.807 61.8719 129.806 71.4032 129.827 80.9344C129.829 81.6543 129.591 82.1386 129.085 82.6408C121.483 90.1951 113.902 97.7716 106.314 105.341C106.077 105.577 105.885 105.876 105.495 105.996C105.191 105.631 105.316 105.212 105.315 104.832C105.308 96.3322 105.31 87.8322 105.309 79.3322C105.309 77.7207 105.282 77.6977 103.694 77.6978C101.694 77.6978 99.6945 77.6965 97.6945 77.6974C96.3382 77.698 96.2548 77.7747 96.2544 79.1215C96.2521 87.7465 96.2359 96.3715 96.2767 104.996C96.2813 105.97 95.9923 106.404 95.0714 106.737C92.7057 107.59 91.3355 109.469 90.4198 111.712C89.8775 113.041 89.4538 114.427 88.2567 115.449ZM62.6889 99.4686C62.6895 102.687 62.688 105.905 62.6919 109.123C62.6933 110.326 62.7452 110.376 63.9766 110.379C66.1637 110.383 68.3508 110.385 70.5379 110.38C71.6945 110.378 71.7453 110.327 71.7456 109.149C71.7479 99.1196 71.7478 89.0902 71.7452 79.0607C71.7449 77.9021 71.5611 77.7111 70.3738 77.7026C68.3118 77.688 66.2496 77.6913 64.1875 77.6994C62.8452 77.7047 62.6935 77.8651 62.6929 79.2222C62.6903 85.9085 62.6901 92.5948 62.6889 99.4686ZM82.4786 70.0019C81.4949 71.0966 81.4065 72.1111 82.2094 73.0911C82.9726 74.0228 84.1055 74.2579 85.0438 73.6793C86.1762 72.9811 86.5235 71.6888 85.8901 70.6082C85.2956 69.5938 83.7972 68.9462 82.4786 70.0019ZM49.8919 74.0021C50.1094 74.0135 50.3285 74.0477 50.5441 74.0325C51.7879 73.9446 52.6721 72.9487 52.618 71.7109C52.5678 70.5635 51.5731 69.6314 50.3944 69.6274C49.2691 69.6235 48.3926 70.3347 48.1212 71.4718C47.8787 72.4879 48.4736 73.4078 49.8919 74.0021ZM49.39 114.707C49.209 114.829 49.0101 114.931 48.8499 115.075C47.9833 115.857 47.8561 117.111 48.5384 118.026C49.2578 118.992 50.5217 119.239 51.5268 118.612C52.4826 118.015 52.8592 116.837 52.4117 115.843C51.9183 114.747 50.8363 114.302 49.39 114.707Z" fill="#21409A"/>
<path d="M58.9775 149.573C59.1012 147.577 60.0311 146.032 61.3176 144.715C64.3727 141.587 67.4822 138.512 70.5657 135.412C74.7947 131.159 79.0179 126.901 83.2485 122.651C84.4043 121.489 85.6972 120.528 87.2453 119.931C88.3558 119.503 89.4092 118.956 90.3491 118.213C91.7855 117.077 92.8155 115.675 93.2928 113.877C93.6061 112.698 94.0187 111.564 94.9507 110.681C96.4814 109.232 98.8082 109.124 100.392 110.517C101.141 111.176 101.859 111.88 102.524 112.623C103.085 113.25 103.479 113.169 104.04 112.601C109.329 107.244 114.642 101.91 119.946 96.5669C124.061 92.4216 128.172 88.2714 132.291 84.1302C132.631 83.7876 132.858 83.3926 133.032 82.953C133.79 81.0377 134.564 79.1288 135.302 77.2061C135.569 76.5104 135.976 75.9714 136.575 75.5217C138.849 73.817 141.09 72.069 143.36 70.36C144.586 69.4377 144.878 69.4695 146.003 70.5248C147.301 71.7428 148.579 72.9832 149.883 74.194C150.53 74.794 150.687 75.4271 150.178 76.1824C148.399 78.8251 146.623 81.4694 144.844 84.1123C144.684 84.3498 144.48 84.5323 144.206 84.642C143.887 84.7696 143.59 84.9621 143.264 85.0559C138.486 86.4281 135.404 90.0615 132.095 93.397C126.968 98.5631 121.829 103.717 116.699 108.879C113.992 111.603 111.307 114.35 108.577 117.052C107.943 117.679 107.906 118.145 108.577 118.732C109.116 119.204 109.603 119.737 110.106 120.25C112.146 122.328 111.851 125.281 109.434 126.925C108.654 127.455 107.8 127.857 106.902 128.124C103.944 129.001 102.332 131.171 101.406 133.924C100.893 135.449 100.09 136.733 98.9683 137.855C91.6159 145.215 84.2735 152.585 76.9146 159.938C73.4065 163.444 68.1495 163.349 64.7361 159.76C63.4877 158.447 62.1931 157.177 60.9705 155.841C59.3725 154.094 58.6446 152.038 58.9775 149.573Z" fill="#21409A"/>
<path d="M149.937 157.832C146.992 159.392 143.907 160.324 140.659 160.325C133.099 160.327 127.081 157.215 122.857 150.898C120.263 147.02 119.148 142.656 119.403 138.021C119.939 128.289 126.892 120.34 136.341 118.618C147.912 116.51 158.956 124.32 160.736 135.849C162.149 145.004 158.099 153.282 149.937 157.832ZM155.176 134.976C154.622 133.101 153.792 131.353 152.577 129.823C148.687 124.923 143.632 122.685 137.422 123.766C129.395 125.164 123.27 133.086 124.902 142.222C126.381 150.506 134.711 156.369 142.981 154.768C152.044 153.013 157.665 143.981 155.176 134.976Z" fill="#FF6B00"/>
<path d="M129.825 104.067C129.864 107.906 129.889 111.652 129.951 115.398C129.964 116.179 129.689 116.639 128.992 117.029C121.743 121.084 117.276 127.154 115.803 135.372C115.455 137.311 115.446 137.309 113.469 137.308C111.532 137.306 109.595 137.316 107.658 137.303C105.944 137.291 105.439 136.793 105.347 135.08C105.24 133.098 105.828 132.144 107.679 131.381C108.775 130.929 109.904 130.559 110.923 129.933C115.036 127.409 116.003 121.72 112.851 118.459C112.45 118.045 112.512 117.765 112.899 117.375C118.245 111.987 123.562 106.57 129.029 101.303C129.22 101.119 129.391 100.862 129.825 100.919C129.825 101.932 129.825 102.953 129.825 104.067Z" fill="#21409A"/>
<path d="M141.643 51.6208C141.452 52.7721 141.26 53.8425 141.091 54.9163C140.967 55.6972 140.618 56.1689 139.74 56.139C138.906 56.1105 138.622 55.6148 138.49 54.8959C138.16 53.093 137.946 51.2722 137.446 49.4962C136.604 46.5051 134.784 44.5463 131.745 43.7694C130.779 43.5226 129.817 43.2631 128.854 43.0083C128.613 42.9447 128.373 42.8807 128.135 42.8095C127.406 42.5914 126.906 42.1277 126.908 41.3473C126.911 40.5811 127.361 40.0689 128.111 39.8659C128.771 39.687 129.431 39.4955 130.103 39.3745C134.28 38.6226 136.504 35.8894 137.539 32.001C137.889 30.6836 138.065 29.3192 138.309 27.9742C138.454 27.1734 138.626 26.414 139.667 26.3762C140.717 26.338 140.945 27.0724 141.107 27.8811C141.401 29.3434 141.561 30.8279 141.942 32.2777C142.993 36.2745 145.321 38.8813 149.566 39.4918C150.056 39.5624 150.537 39.7063 151.02 39.8246C151.773 40.0092 152.265 40.4863 152.251 41.2635C152.237 42.0125 151.692 42.4137 151.004 42.5987C150.433 42.7523 149.861 42.9162 149.279 43.0169C144.871 43.7805 142.619 46.6002 141.811 50.8099C141.764 51.0548 141.705 51.2976 141.643 51.6208Z" fill="#FF6B00"/>
<path d="M156.209 64.8579C155.508 62.8023 154.009 61.8232 152.047 61.4144C151.347 61.2685 150.645 61.132 149.941 61.0046C149.221 60.8743 148.698 60.5071 148.643 59.7472C148.583 58.9227 149.118 58.5037 149.852 58.3139C150.394 58.1736 150.943 58.0586 151.493 57.9508C154.522 57.357 156.053 55.3407 156.665 52.4758C156.885 51.4438 157.047 50.3985 157.21 49.3552C157.31 48.7099 157.688 48.4267 158.304 48.4551C158.886 48.4819 159.172 48.8133 159.267 49.3996C159.483 50.7171 159.629 52.0467 159.995 53.339C160.762 56.0452 162.463 57.6758 165.295 58.057C165.787 58.1231 166.276 58.232 166.753 58.3683C167.32 58.5301 167.676 58.9265 167.658 59.5289C167.641 60.1236 167.302 60.503 166.702 60.638C166.216 60.7473 165.742 60.9251 165.251 60.9963C162.103 61.4534 160.452 63.4126 159.821 66.3869C159.596 67.4513 159.439 68.53 159.251 69.6023C159.147 70.1921 158.949 70.7049 158.235 70.7414C157.497 70.779 157.261 70.2585 157.163 69.6767C156.897 68.0837 156.776 66.4636 156.209 64.8579Z" fill="#FF6B00"/>
<path d="M137.607 148.342C136.622 148.246 135.899 147.813 135.263 147.164C133.602 145.472 131.889 143.829 130.249 142.117C128.691 140.49 129.337 138.104 131.428 137.658C132.271 137.478 133.043 137.722 133.664 138.318C134.655 139.268 135.616 140.249 136.599 141.208C136.885 141.487 137.122 141.833 137.53 141.976C137.94 141.84 138.174 141.49 138.456 141.209C141.129 138.542 143.798 135.873 146.458 133.194C146.978 132.67 147.542 132.25 148.285 132.141C149.418 131.974 150.415 132.465 150.875 133.395C151.432 134.524 151.199 135.738 150.215 136.726C147.531 139.424 144.841 142.117 142.153 144.812C141.403 145.563 140.629 146.29 139.911 147.071C139.295 147.742 138.583 148.191 137.607 148.342Z" fill="#FF6B00"/>
</svg>
