<svg width="197" height="197" viewBox="0 0 197 197" fill="none" xmlns="http://www.w3.org/2000/svg">
<path d="M151.118 26.8431C151.569 26.2963 151.966 25.791 152.396 25.3163C153.153 24.4805 154.253 24.4859 154.968 25.3686C157.954 29.0525 160.917 32.7556 163.902 36.4404C164.274 36.8995 164.369 37.3928 164.368 37.9563C164.361 41.6114 164.4 45.267 164.35 48.9215C164.336 49.9089 164.652 50.234 165.616 50.1613C166.572 50.0891 167.539 50.1298 168.5 50.1529C169.551 50.1783 170.115 50.7168 170.123 51.7605C170.145 54.3574 170.144 56.9547 170.123 59.5517C170.115 60.5997 169.64 61.0305 168.555 61.055C167.466 61.0796 166.376 61.0837 165.287 61.0991C164.619 61.1085 164.358 61.4111 164.359 62.1142C164.378 71.188 164.378 80.2618 164.359 89.3355C164.357 90.1244 164.624 90.4419 165.419 90.4037C166.475 90.3529 167.534 90.3597 168.592 90.36C169.684 90.3602 170.26 90.7895 170.285 91.8741C170.348 94.5337 170.34 97.1962 170.297 99.8564C170.281 100.823 169.719 101.237 168.722 101.269C167.602 101.306 166.481 101.397 165.361 101.399C164.62 101.401 164.342 101.68 164.356 102.429C164.392 104.256 164.371 106.084 164.358 107.911C164.355 108.216 164.465 108.543 164.189 108.932C157.236 101.411 148.71 97.5625 138.435 98.2124C128.129 98.8643 120.253 103.94 114.204 112.228C113.935 111.835 114.021 111.478 114.02 111.151C114.013 108.298 113.988 105.444 114.032 102.591C114.046 101.72 113.77 101.379 112.885 101.4C111.187 101.439 109.487 101.401 107.788 101.398C106.621 101.396 106.475 101.52 106.468 102.732C106.453 105.457 106.466 108.182 106.466 110.908C106.466 111.549 106.468 112.19 106.455 112.831C106.429 114.022 105.941 114.512 104.747 114.517C102.214 114.529 99.681 114.527 97.148 114.528C93.7814 114.528 90.4148 114.533 87.0482 114.521C85.4617 114.516 85.1536 114.19 85.1519 112.593C85.1486 109.387 85.1498 106.18 85.149 102.974C85.1487 101.58 85.0251 101.457 83.6011 101.449C82.7675 101.445 81.9331 101.468 81.1004 101.44C79.9588 101.4 79.4025 100.84 79.3948 99.6892C79.378 97.1563 79.3778 94.6232 79.3968 92.0904C79.4052 90.9818 79.8699 90.5596 81.0111 90.5475C81.9728 90.5374 82.9405 90.4804 83.8951 90.5642C84.8085 90.6445 85.1084 90.2261 85.115 89.4215C85.1264 88.0125 85.1415 86.6035 85.1422 85.1945C85.1454 79.1988 85.1514 73.203 85.1392 67.2073C85.1358 65.5411 85.0485 63.8751 85.0493 62.2091C85.0497 61.476 84.7231 61.1301 84.0357 61.107C83.011 61.0724 81.9852 61.0714 80.9598 61.0579C80.1865 61.0478 79.6276 60.7381 79.5873 59.9054C79.4525 57.1209 79.3629 54.3349 79.5659 51.5488C79.634 50.6142 80.1715 50.1729 81.0675 50.1507C81.9967 50.1276 82.93 50.0965 83.8559 50.1567C84.7465 50.2147 85.0243 49.8603 85.0276 48.9939C85.0414 45.3399 85.1227 41.6862 85.1465 38.0321C85.1509 37.3564 85.302 36.7936 85.7284 36.2623C88.5956 32.6891 91.4402 29.0978 94.3072 25.5243C95.1845 24.4307 96.2464 24.392 97.1395 25.4898C100.132 29.168 103.082 32.8808 106.054 36.5757C106.376 36.9761 106.465 37.4219 106.464 37.9191C106.457 41.4458 106.461 44.9725 106.461 48.4992C106.461 50.0652 106.535 50.143 108.067 50.1449C109.574 50.1469 111.081 50.1477 112.587 50.146C113.975 50.1444 114.016 50.106 114.018 48.6634C114.021 45.2006 114.032 41.7377 114.007 38.275C114.001 37.4643 114.217 36.8088 114.738 36.1685C117.549 32.7159 120.327 29.2358 123.107 25.7581C124.225 24.3605 125.183 24.3193 126.311 25.7112C129.157 29.2202 131.979 32.7476 134.814 36.2648C135.293 36.8594 135.525 37.4982 135.517 38.2914C135.482 41.85 135.524 45.4094 135.489 48.9681C135.481 49.8326 135.746 50.1829 136.641 50.1582C138.371 50.1104 140.104 50.1134 141.835 50.1591C142.659 50.1809 142.886 49.8296 142.882 49.071C142.861 45.5121 142.887 41.9529 142.864 38.3941C142.859 37.5137 143.111 36.7959 143.671 36.1083C146.16 33.0547 148.612 29.9712 151.118 26.8431ZM114.019 68.1996C114.018 66.2444 113.993 64.2888 114.028 62.3342C114.044 61.4215 113.647 61.0494 112.768 61.0568C111.198 61.0699 109.627 61.057 108.056 61.0578C106.549 61.0585 106.465 61.14 106.465 62.6117C106.465 67.9323 106.468 73.2529 106.467 78.5735C106.467 82.067 106.459 85.5605 106.461 89.054C106.462 90.4586 106.55 90.5419 107.904 90.5436C109.475 90.5455 111.045 90.5453 112.616 90.544C114.007 90.5428 114.024 90.5325 114.024 89.1618C114.025 82.2386 114.021 75.3153 114.019 68.1996ZM135.503 68.392C135.504 75.3488 135.513 82.3056 135.491 89.2624C135.489 90.0367 135.611 90.4517 136.531 90.4133C138.292 90.34 140.057 90.3533 141.82 90.3738C142.601 90.3829 142.887 90.0896 142.885 89.2947C142.865 80.2862 142.865 71.2775 142.885 62.269C142.887 61.3969 142.559 61.0426 141.705 61.0538C140.038 61.0757 138.37 61.0842 136.704 61.0544C135.786 61.038 135.468 61.429 135.49 62.3331C135.537 64.2876 135.504 66.244 135.503 68.392ZM126.311 94.4477C125.417 93.6344 124.399 93.5126 123.531 94.1154C122.762 94.6499 122.428 95.648 122.759 96.4822C123.078 97.2881 123.643 97.8015 124.538 97.8872C125.429 97.9726 126.086 97.5953 126.559 96.8575C127.075 96.0518 127 95.286 126.311 94.4477ZM97.8113 95.2926C97.6967 95.0661 97.6072 94.8221 97.4632 94.6163C96.8422 93.7289 95.6776 93.4446 94.7567 93.9387C93.8413 94.43 93.4487 95.5482 93.8258 96.59C94.15 97.4857 95.138 98.0176 96.151 97.8417C97.2293 97.6544 97.8537 96.7656 97.8113 95.2926ZM96.7276 57.8175C97.8405 57.0269 98.1694 56.0159 97.6348 55.0283C97.1295 54.0946 95.9842 53.6626 94.9972 54.0333C94.0131 54.4029 93.5049 55.4475 93.7679 56.5598C94.0508 57.7559 95.154 58.2706 96.7276 57.8175ZM126.838 56.3363C126.906 55.1144 126.274 54.1664 125.247 53.9497C124.18 53.7243 123.255 54.2025 122.827 55.2003C122.417 56.1585 122.752 57.1124 123.724 57.75C124.813 58.464 126.169 57.8968 126.838 56.3363ZM154.373 93.8546C153.076 93.6614 152.285 94.0238 151.833 95.0181C151.448 95.865 151.688 96.8834 152.403 97.4371C153.427 98.2307 154.812 98.0126 155.505 96.9486C156.189 95.899 155.782 94.6647 154.373 93.8546ZM154.482 57.8247C154.621 57.7491 154.773 57.6896 154.899 57.5955C155.825 56.901 156.084 55.7941 155.538 54.8972C154.925 53.8924 153.823 53.5342 152.83 54.0172C151.947 54.4468 151.439 55.627 151.751 56.5226C152.111 57.5576 153.254 58.1505 154.482 57.8247Z" fill="#21409A"/>
<path d="M93.954 130.135C96.2224 131.276 97.226 133.313 96.8136 135.836C96.4891 137.821 94.6886 139.367 92.472 139.757C89.6689 140.25 87.0856 139.322 84.4809 138.622C81.1778 137.736 77.9171 136.691 74.6382 135.714C74.5155 135.677 74.394 135.637 74.2704 135.604C73.6256 135.431 72.9314 135.313 72.5427 135.986C72.1113 136.733 72.5545 137.383 73.1122 137.84C74.5272 138.998 76.0706 139.971 77.659 140.883C81.7232 143.214 86.1215 144.417 90.741 145.019C95.3322 145.617 99.9294 146.13 104.539 146.561C106.185 146.715 107.854 146.806 109.459 147.291C111.746 147.981 113.148 150.134 112.782 152.462C112.646 153.327 112.137 153.981 111.46 154.513C109.802 155.815 107.804 156.182 105.808 156.452C100.743 157.136 95.6506 157.565 90.5628 158.044C85.3741 158.533 80.1947 159.116 74.9792 159.246C70.3867 159.36 66.2282 157.99 62.334 155.627C58.9373 153.567 55.5563 151.477 52.064 149.578C48.9997 147.912 45.7537 146.769 42.2913 146.303C41.5889 146.209 41.447 145.9 41.5395 145.279C42.5595 138.431 43.5683 131.582 44.5835 124.733C44.7612 123.534 44.999 122.342 45.1232 121.138C45.1913 120.477 45.5176 120.223 46.1007 120.202C50.3574 120.046 54.5334 119.245 58.7375 118.659C63.6636 117.972 68.3708 118.843 72.8325 120.97C79.0208 123.92 85.186 126.916 91.6399 129.262C92.392 129.535 93.139 129.822 93.954 130.135Z" fill="#21409A"/>
<path d="M151.651 104.964C159.47 108.738 164.723 114.679 166.69 123.081C169.098 133.37 166.636 142.471 158.822 149.788C154.575 153.765 149.422 155.994 143.605 156.699C131.817 158.128 120.249 151.425 115.692 140.561C111.145 129.721 113.898 116.318 123.588 108.574C127.841 105.175 132.661 103.166 138.124 102.633C142.846 102.172 147.276 103.121 151.651 104.964ZM145.917 150.596C156.34 147.991 163.787 137.517 161.582 125.682C159.52 114.614 148.632 106.171 136.838 108.358C123.724 110.789 116.232 124.311 120.223 136.568C123.624 147.014 134.805 153.409 145.917 150.596Z" fill="#FF6B00"/>
<path d="M38.3598 147.941C37.8763 149.098 36.9758 149.529 35.8825 149.54C32.9024 149.569 29.9216 149.571 26.9415 149.541C25.2915 149.524 24.1778 148.371 24.1767 146.736C24.1703 137.506 24.17 128.277 24.177 119.047C24.1782 117.487 25.0184 116.503 26.5659 116.314C28.5431 116.073 30.5345 116.24 32.5193 116.216C34.986 116.187 37.4589 116.125 39.919 116.261C42.1919 116.387 43.0865 117.653 42.7452 119.882C41.548 127.704 40.3414 135.524 39.1532 143.347C38.9236 144.86 38.8169 146.391 38.3598 147.941Z" fill="#21409A"/>
<path d="M138.202 140.021C136.703 140.619 135.521 140.249 134.496 139.143C132.057 136.509 129.579 133.913 127.161 131.26C125.954 129.935 126.063 128.086 127.305 126.952C128.613 125.759 130.412 125.853 131.679 127.177C132.056 127.571 132.441 127.957 132.814 128.353C133.891 129.496 134.993 130.617 136.025 131.799C136.603 132.46 137.028 132.504 137.644 131.844C140.636 128.632 143.659 125.448 146.672 122.255C147.75 121.114 148.825 119.97 149.91 118.834C151.138 117.548 152.956 117.433 154.219 118.552C155.55 119.732 155.708 121.545 154.486 122.928C152.937 124.68 151.31 126.363 149.709 128.068C146.308 131.689 142.903 135.306 139.498 138.922C139.126 139.318 138.775 139.741 138.202 140.021Z" fill="#FF6B00"/>
</svg>
