<svg width="172" height="172" viewBox="0 0 172 172" fill="none" xmlns="http://www.w3.org/2000/svg">
<path d="M79.6162 121.861C79.6162 120.695 79.6162 119.529 79.6162 118.302C80.9958 118.302 82.2947 118.302 83.6517 118.302C83.5084 114.48 83.5455 110.731 84.5268 106.96C82.8369 106.96 81.2302 106.96 79.6849 106.96C79.6849 93.2227 79.6849 79.5712 79.6849 65.8609C82.5812 65.8609 85.4083 65.8609 88.2704 65.8609C88.2704 76.3413 88.2704 86.7204 88.2704 97.3383C88.483 96.9078 88.5841 96.6904 88.6964 96.4788C88.8266 96.2336 88.9597 95.9894 89.1032 95.7519C94.2645 87.2096 101.679 81.5636 111.185 78.6358C111.775 78.454 111.884 78.2112 111.878 77.6642C111.837 73.9168 111.828 70.169 111.813 66.4214C111.812 66.2402 111.848 66.0589 111.87 65.8495C114.768 65.8495 117.606 65.8495 120.523 65.8495C120.523 69.6356 120.523 73.339 120.523 77.0766C129.237 76.9813 136.987 79.6777 143.988 85.0065C143.988 78.535 143.988 72.2237 143.988 65.8432C145.738 65.8432 147.411 65.8507 149.085 65.8403C150.088 65.8341 150.675 65.3726 150.679 64.5334C150.691 61.4825 150.684 58.4315 150.661 55.3807C150.656 54.7599 150.283 54.4209 149.646 54.4154C148.555 54.406 147.463 54.3978 146.372 54.393C145.572 54.3895 144.772 54.3923 143.948 54.3923C143.948 54.0902 143.947 53.8953 143.948 53.7004C143.958 49.2217 143.96 44.743 143.986 40.2644C143.991 39.5357 143.814 38.9489 143.323 38.372C141.987 36.8011 140.719 35.1715 139.43 33.5606C137.409 31.0352 135.395 28.5041 133.373 25.9797C132.703 25.1442 131.843 25.1012 131.084 25.8614C130.847 26.0979 130.637 26.3621 130.428 26.6235C127.357 30.4539 124.292 34.2895 121.214 38.1141C120.705 38.7469 120.405 39.4052 120.427 40.249C120.51 43.4871 120.574 46.7263 120.588 49.9653C120.595 51.4319 120.47 52.8991 120.404 54.3777C117.553 54.3777 114.74 54.3777 111.867 54.3777C111.867 53.6439 111.867 52.9499 111.867 52.2559C111.865 48.4001 111.836 44.5439 111.879 40.6885C111.891 39.7003 111.59 38.93 110.979 38.1821C107.823 34.3136 104.629 30.4725 101.588 26.5142C100.454 25.0375 99.4271 25.0026 98.214 26.5927C95.2885 30.4271 92.2139 34.1478 89.1894 37.9063C88.6937 38.5223 88.2758 39.128 88.2877 39.9825C88.3288 42.9477 88.3306 45.9134 88.341 48.879C88.3474 50.7099 88.3422 52.5408 88.3422 54.3568C85.3362 54.3568 82.5293 54.3568 79.6162 54.3568C79.6162 49.5398 79.6047 44.7849 79.6285 40.0302C79.6322 39.3126 79.4116 38.7652 78.964 38.2145C75.7805 34.2972 72.6146 30.3656 69.4628 26.4227C68.2517 24.9076 67.4998 24.9072 66.3068 26.4083C63.4777 29.9679 60.6583 33.5365 57.7534 37.0337C56.7205 38.2772 56.1843 39.5155 56.2317 41.1835C56.3485 45.2947 56.2697 49.4114 56.2696 53.5259C56.2696 53.8187 56.2696 54.1115 56.2696 54.384C53.295 54.384 50.4482 54.384 47.5347 54.384C47.5347 54.0767 47.5347 53.804 47.5347 53.5313C47.5347 49.0525 47.5532 44.5735 47.5107 40.095C47.5056 39.5581 47.2973 38.9235 46.9669 38.5047C43.6692 34.3234 40.3272 30.177 36.9948 26.0229C36.2598 25.1066 35.3089 25.091 34.5272 25.9733C34.3791 26.1404 34.2359 26.3122 34.0971 26.4871C30.9955 30.3972 27.8813 34.2974 24.8129 38.2333C24.4669 38.6771 24.2152 39.32 24.2029 39.8767C24.1469 42.4224 24.1948 44.9704 24.1996 47.5175C24.2038 49.8022 24.2005 52.0869 24.2005 54.4168C22.2267 54.4168 20.356 54.4161 18.4854 54.4171C17.3309 54.4176 17.1296 54.6111 17.1257 55.7831C17.1166 58.4704 17.1173 61.1577 17.1151 63.845C17.1137 65.4827 17.4738 65.8419 19.117 65.8427C20.7872 65.8435 22.4574 65.8428 24.1391 65.8428C24.1391 79.6032 24.1391 93.2961 24.1391 106.997C22.2443 106.997 20.4248 106.991 18.6054 106.999C17.5916 107.004 17.1255 107.464 17.1211 108.479C17.1111 110.831 17.1453 113.183 17.1078 115.533C17.0673 118.071 17.0354 118.354 19.9151 118.314C21.329 118.294 22.7434 118.311 24.1883 118.311C24.1883 118.733 24.1883 119.04 24.1883 119.347C24.1883 125.477 24.1872 131.608 24.1891 137.738C24.1895 138.935 24.6615 139.412 25.8526 139.412C32.5148 139.415 39.1771 139.414 45.8394 139.412C47.1145 139.412 47.5343 138.984 47.5343 137.707C47.5346 131.549 47.5344 125.391 47.5343 119.232C47.5343 118.937 47.5343 118.641 47.5343 118.362C50.5078 118.362 53.3725 118.362 56.27 118.362C56.27 118.732 56.2699 119.039 56.27 119.346C56.2715 125.504 56.2712 131.663 56.2762 137.821C56.2771 138.963 56.7084 139.409 57.8167 139.41C64.5629 139.414 71.3092 139.415 78.0555 139.411C79.2678 139.411 79.6639 139.004 79.6606 137.816C79.646 132.554 79.631 127.292 79.6162 121.861ZM150.34 132.627C152.713 128.609 154.087 124.271 154.545 119.629C154.88 116.246 154.843 112.868 154.165 109.543C152.381 100.794 147.829 93.7465 140.591 88.5643C132.965 83.1047 124.452 81.2621 115.226 83.1486C106.962 84.8385 100.253 89.1118 95.1896 95.8256C89.4141 103.483 87.362 112.125 88.8418 121.608C89.8615 128.143 92.7224 133.795 97.2176 138.576C102.841 144.557 109.771 148.059 117.962 149.015C122.824 149.582 127.57 149.103 132.189 147.508C140.024 144.802 146.021 139.82 150.34 132.627Z" fill="#FBFBFB"/>
<path d="M79.6162 121.945C79.631 127.292 79.646 132.554 79.6606 137.816C79.664 139.004 79.2678 139.411 78.0555 139.411C71.3092 139.415 64.5629 139.414 57.8167 139.41C56.7084 139.409 56.2771 138.963 56.2762 137.821C56.2712 131.663 56.2715 125.504 56.27 119.346C56.2699 119.039 56.27 118.732 56.27 118.362C53.3725 118.362 50.5078 118.362 47.5343 118.362C47.5343 118.641 47.5343 118.937 47.5343 119.232C47.5344 125.391 47.5346 131.549 47.5343 137.707C47.5343 138.984 47.1145 139.412 45.8394 139.412C39.1771 139.414 32.5148 139.415 25.8526 139.412C24.6615 139.412 24.1895 138.935 24.1891 137.738C24.1872 131.608 24.1883 125.477 24.1883 119.347C24.1883 119.04 24.1883 118.733 24.1883 118.311C22.7434 118.311 21.329 118.294 19.9151 118.314C17.0354 118.354 17.0673 118.071 17.1078 115.533C17.1453 113.183 17.1111 110.831 17.1211 108.479C17.1255 107.464 17.5916 107.004 18.6054 106.999C20.4248 106.991 22.2443 106.997 24.1391 106.997C24.1391 93.2962 24.1391 79.6032 24.1391 65.8428C22.4574 65.8428 20.7872 65.8435 19.117 65.8427C17.4738 65.8419 17.1137 65.4827 17.1151 63.845C17.1173 61.1577 17.1166 58.4704 17.1257 55.7831C17.1296 54.6111 17.3309 54.4177 18.4854 54.4171C20.356 54.4161 22.2267 54.4168 24.2005 54.4168C24.2005 52.0869 24.2038 49.8022 24.1996 47.5175C24.1948 44.9704 24.1469 42.4224 24.2029 39.8767C24.2152 39.32 24.4669 38.6771 24.8129 38.2333C27.8813 34.2974 30.9955 30.3972 34.0971 26.4871C34.2359 26.3122 34.3791 26.1404 34.5272 25.9733C35.3089 25.091 36.2598 25.1066 36.9948 26.0229C40.3272 30.177 43.6692 34.3234 46.9669 38.5047C47.2973 38.9235 47.5056 39.5581 47.5107 40.095C47.5532 44.5735 47.5347 49.0525 47.5347 53.5313C47.5347 53.804 47.5347 54.0767 47.5347 54.384C50.4482 54.384 53.295 54.384 56.2696 54.384C56.2696 54.1115 56.2696 53.8187 56.2696 53.5259C56.2697 49.4114 56.3485 45.2947 56.2317 41.1835C56.1843 39.5155 56.7205 38.2772 57.7534 37.0337C60.6583 33.5365 63.4777 29.9679 66.3068 26.4083C67.4998 24.9072 68.2517 24.9076 69.4628 26.4227C72.6147 30.3656 75.7806 34.2972 78.964 38.2145C79.4116 38.7652 79.6322 39.3126 79.6286 40.0302C79.6047 44.7849 79.6162 49.5398 79.6162 54.3568C82.5293 54.3568 85.3363 54.3568 88.3422 54.3568C88.3422 52.5408 88.3475 50.7099 88.341 48.879C88.3307 45.9134 88.3288 42.9477 88.2877 39.9825C88.2758 39.128 88.6937 38.5223 89.1894 37.9063C92.2139 34.1478 95.2886 30.4271 98.214 26.5927C99.4271 25.0026 100.454 25.0375 101.588 26.5142C104.629 30.4725 107.823 34.3136 110.979 38.1821C111.59 38.93 111.891 39.7003 111.879 40.6885C111.836 44.5439 111.865 48.4001 111.867 52.2559C111.867 52.9499 111.867 53.6439 111.867 54.3777C114.74 54.3777 117.553 54.3777 120.404 54.3777C120.47 52.8991 120.595 51.4319 120.588 49.9653C120.574 46.7263 120.51 43.4871 120.427 40.249C120.405 39.4052 120.705 38.7469 121.214 38.1141C124.292 34.2895 127.357 30.4539 130.428 26.6235C130.637 26.3621 130.847 26.0979 131.084 25.8614C131.843 25.1012 132.703 25.1442 133.373 25.9797C135.395 28.5041 137.409 31.0352 139.43 33.5606C140.719 35.1715 141.987 36.8011 143.323 38.372C143.814 38.9489 143.991 39.5357 143.986 40.2644C143.96 44.743 143.958 49.2217 143.948 53.7004C143.947 53.8953 143.948 54.0902 143.948 54.3923C144.772 54.3923 145.572 54.3895 146.372 54.393C147.463 54.3978 148.555 54.406 149.646 54.4154C150.284 54.4209 150.656 54.7599 150.661 55.3807C150.684 58.4315 150.691 61.4825 150.679 64.5334C150.675 65.3726 150.088 65.8341 149.085 65.8403C147.411 65.8507 145.738 65.8432 143.988 65.8432C143.988 72.2237 143.988 78.535 143.988 85.0065C136.987 79.6777 129.237 76.9813 120.523 77.0766C120.523 73.339 120.523 69.6357 120.523 65.8495C117.606 65.8495 114.768 65.8495 111.87 65.8495C111.848 66.0589 111.812 66.2402 111.813 66.4214C111.828 70.169 111.837 73.9168 111.878 77.6642C111.884 78.2112 111.775 78.454 111.185 78.6358C101.679 81.5636 94.2645 87.2096 89.1032 95.7519C88.9597 95.9894 88.8266 96.2336 88.6964 96.4788C88.5841 96.6904 88.483 96.9078 88.2704 97.3383C88.2704 86.7204 88.2704 76.3413 88.2704 65.8609C85.4083 65.8609 82.5812 65.8609 79.6849 65.8609C79.6849 79.5712 79.6849 93.2227 79.6849 106.96C81.2302 106.96 82.8369 106.96 84.5268 106.96C83.5455 110.731 83.5084 114.48 83.6517 118.302C82.2947 118.302 80.9958 118.302 79.6162 118.302C79.6162 119.529 79.6162 120.695 79.6162 121.945ZM49.304 65.8427C48.7265 65.8427 48.1489 65.8427 47.5701 65.8427C47.5701 79.6016 47.5701 93.2681 47.5701 106.96C50.5296 106.96 53.4531 106.96 56.2851 106.96C56.2851 93.2407 56.2851 79.559 56.2851 65.8426C53.9282 65.8426 51.6999 65.8426 49.304 65.8427ZM36.8861 58.2479C35.8362 57.5952 34.8043 57.6689 34.0021 58.454C33.2501 59.1901 33.1333 60.345 33.7173 61.2707C34.2582 62.1282 35.3586 62.4973 36.3529 62.135C37.6403 61.6658 38.4892 59.7666 36.8861 58.2479ZM66.2678 58.4633C66.143 58.6455 65.9922 58.8152 65.8978 59.012C65.339 60.177 65.8937 61.5757 67.0932 62.0543C68.3717 62.5645 69.6678 61.9388 70.0634 60.6203C70.3337 59.7194 69.9562 58.7202 69.1313 58.153C68.3055 57.5853 67.3705 57.6602 66.2678 58.4633ZM132.381 57.7807C132.269 57.7803 132.157 57.7748 132.045 57.7804C130.806 57.8428 129.84 58.8037 129.851 59.9627C129.861 61.1193 130.716 62.0787 131.83 62.184C133.144 62.3083 134.131 61.5574 134.332 60.2798C134.484 59.3121 133.743 58.2951 132.381 57.7807ZM102.104 59.3376C102.045 59.2123 101.992 59.0831 101.924 58.9623C101.411 58.0443 100.318 57.5695 99.384 57.8559C98.2867 58.1925 97.6864 59.0406 97.7567 60.1548C97.8222 61.1935 98.636 62.0549 99.6998 62.2117C101.266 62.4425 102.253 61.3291 102.104 59.3376ZM35.5491 115.063C37.2935 115.022 38.3217 113.545 37.6857 111.994C37.2626 110.962 36.2707 110.46 35.1062 110.689C34.1713 110.873 33.4068 111.871 33.4243 112.884C33.4443 114.047 34.1492 114.821 35.5491 115.063ZM65.8597 112.241C65.8507 112.519 65.8228 112.799 65.8359 113.077C65.8886 114.194 66.8326 115.065 67.9884 115.078C69.1553 115.09 70.1136 114.261 70.2117 113.155C70.3069 112.082 69.6508 111.033 68.6938 110.729C67.5709 110.372 66.5453 110.882 65.8597 112.241Z" fill="#21409A"/>
<path d="M150.323 132.687C146.021 139.82 140.024 144.802 132.189 147.508C127.57 149.103 122.824 149.582 117.962 149.014C109.771 148.059 102.841 144.556 97.2176 138.575C92.7224 133.794 89.8615 128.143 88.8418 121.608C87.362 112.125 89.4142 103.483 95.1896 95.8255C100.253 89.1117 106.962 84.8384 115.226 83.1485C124.452 81.262 132.965 83.1046 140.591 88.5642C147.829 93.7464 152.381 100.794 154.165 109.543C154.843 112.868 154.88 116.246 154.545 119.629C154.087 124.271 152.713 128.609 150.323 132.687ZM98.0299 105.338C91.9043 118.857 98.3915 133.902 111.424 139.685C124.169 145.339 139.509 139.245 145.398 126.114C151.075 113.456 145.113 98.0495 132.292 92.2444C119.435 86.423 104.025 92.2713 98.0299 105.338Z" fill="#FF6B00"/>
<path d="M36.9441 58.2738C38.4892 59.7665 37.6403 61.6656 36.3529 62.1348C35.3586 62.4972 34.2582 62.128 33.7173 61.2705C33.1333 60.3449 33.2501 59.1899 34.0021 58.4539C34.8043 57.6688 35.8362 57.5951 36.9441 58.2738Z" fill="#F7F7F7"/>
<path d="M66.3138 58.4191C67.3705 57.6601 68.3055 57.5852 69.1313 58.1529C69.9562 58.7201 70.3337 59.7193 70.0634 60.6202C69.6678 61.9387 68.3717 62.5645 67.0932 62.0543C65.8937 61.5756 65.339 60.177 65.8978 59.0119C65.9922 58.8151 66.143 58.6454 66.3138 58.4191Z" fill="#F8F8F8"/>
<path d="M132.45 57.785C133.743 58.2949 134.484 59.3119 134.332 60.2796C134.131 61.5572 133.144 62.3081 131.83 62.1838C130.716 62.0785 129.861 61.1191 129.851 59.9625C129.84 58.8036 130.806 57.8426 132.045 57.7802C132.157 57.7746 132.269 57.7801 132.45 57.785Z" fill="#F8F8F8"/>
<path d="M102.114 59.4069C102.253 61.3289 101.265 62.4424 99.6998 62.2116C98.6359 62.0548 97.8222 61.1933 97.7567 60.1547C97.6864 59.0405 98.2867 58.1924 99.384 57.8558C100.318 57.5694 101.411 58.0441 101.924 58.9622C101.992 59.083 102.045 59.2122 102.114 59.4069Z" fill="#F9F9F9"/>
<path d="M35.4784 115.062C34.1492 114.821 33.4443 114.047 33.4243 112.884C33.4068 111.871 34.1713 110.873 35.1062 110.689C36.2707 110.46 37.2626 110.962 37.6857 111.994C38.3217 113.545 37.2935 115.022 35.4784 115.062Z" fill="#F9F9FA"/>
<path d="M65.886 112.177C66.5453 110.882 67.5709 110.372 68.6938 110.729C69.6508 111.033 70.3069 112.082 70.2117 113.155C70.1136 114.261 69.1553 115.09 67.9884 115.078C66.8326 115.065 65.8886 114.194 65.8359 113.077C65.8228 112.799 65.8507 112.519 65.886 112.177Z" fill="#F9F9FA"/>
<path d="M98.0603 105.281C104.025 92.2712 119.435 86.4229 132.292 92.2443C145.113 98.0494 151.075 113.456 145.398 126.114C139.509 139.245 124.169 145.339 111.424 139.684C98.3915 133.902 91.9043 118.857 98.0603 105.281ZM130.15 125.415C131.376 126.333 132.591 127.268 133.832 128.167C135.228 129.179 137.204 128.648 137.909 127.098C138.489 125.824 138.086 124.606 136.757 123.64C133.357 121.168 129.95 118.707 126.566 116.214C126.279 116.003 126.113 115.597 125.951 115.253C125.588 114.484 125.368 113.623 124.888 112.94C124.542 112.448 124.363 112.019 124.365 111.435C124.381 106.79 124.382 102.146 124.369 97.5013C124.367 97.009 124.329 96.4874 124.165 96.0307C123.703 94.7424 122.45 94.1198 121.011 94.3843C119.678 94.6291 118.76 95.7039 118.758 97.0754C118.749 101.692 118.744 106.309 118.763 110.925C118.767 111.748 118.815 112.524 117.92 112.974C117.718 113.075 117.589 113.344 117.452 113.553C116.463 115.055 116.487 117.127 117.502 118.569C118.552 120.06 120.495 120.774 122.288 120.283C122.806 120.141 123.195 120.225 123.623 120.55C125.755 122.163 127.908 123.746 130.15 125.415ZM120.098 136.966C120.099 137.328 120.074 137.692 120.105 138.051C120.17 138.81 120.729 139.274 121.511 139.252C122.235 139.231 122.758 138.741 122.779 137.998C122.804 137.108 122.81 136.216 122.777 135.326C122.746 134.514 122.156 134.008 121.359 134.04C120.615 134.07 120.122 134.588 120.1 135.385C120.088 135.857 120.098 136.331 120.098 136.966ZM98.2559 116.612C98.3997 117.383 98.8566 117.764 99.6493 117.752C100.376 117.74 101.104 117.755 101.831 117.749C102.707 117.741 103.265 117.266 103.3 116.509C103.336 115.75 102.809 115.178 101.947 115.137C101.138 115.099 100.324 115.11 99.5149 115.147C98.6964 115.185 98.2282 115.611 98.2559 116.612Z" fill="#FAFAFA"/>
<path d="M130.102 125.377C127.908 123.746 125.755 122.163 123.623 120.55C123.195 120.225 122.806 120.142 122.288 120.283C120.495 120.774 118.552 120.06 117.502 118.569C116.487 117.127 116.463 115.055 117.452 113.553C117.589 113.344 117.718 113.075 117.92 112.974C118.815 112.524 118.767 111.748 118.763 110.926C118.744 106.309 118.749 101.692 118.758 97.0755C118.76 95.704 119.678 94.6292 121.011 94.3843C122.45 94.1199 123.703 94.7425 124.165 96.0307C124.329 96.4875 124.367 97.0091 124.369 97.5013C124.382 102.146 124.381 106.791 124.365 111.435C124.363 112.019 124.542 112.448 124.888 112.94C125.368 113.623 125.588 114.484 125.951 115.254C126.113 115.597 126.279 116.003 126.566 116.214C129.95 118.708 133.357 121.169 136.757 123.64C138.086 124.606 138.489 125.824 137.909 127.098C137.204 128.648 135.228 129.179 133.832 128.167C132.591 127.268 131.376 126.334 130.102 125.377Z" fill="#FF6B00"/>
<path d="M120.098 136.885C120.098 136.331 120.088 135.858 120.1 135.385C120.122 134.588 120.615 134.07 121.359 134.04C122.156 134.008 122.746 134.514 122.777 135.327C122.81 136.216 122.804 137.108 122.779 137.999C122.758 138.741 122.235 139.231 121.511 139.252C120.729 139.274 120.17 138.81 120.105 138.051C120.074 137.692 120.099 137.328 120.098 136.885Z" fill="#FF6B00"/>
<path d="M98.2504 116.543C98.2282 115.611 98.6964 115.185 99.5149 115.147C100.324 115.111 101.138 115.099 101.947 115.137C102.809 115.178 103.336 115.75 103.3 116.509C103.265 117.266 102.707 117.741 101.831 117.749C101.104 117.755 100.376 117.74 99.6493 117.752C98.8566 117.764 98.3997 117.384 98.2504 116.543Z" fill="#FF6B00"/>
</svg>
